<?xml version="1.0" encoding="utf-8" standalone="no"?>
<!DOCTYPE svg PUBLIC "-//W3C//DTD SVG 1.1//EN"
  "http://www.w3.org/Graphics/SVG/1.1/DTD/svg11.dtd">
<svg xmlns:xlink="http://www.w3.org/1999/xlink" width="791.92pt" height="165.168pt" viewBox="0 0 791.92 165.168" xmlns="http://www.w3.org/2000/svg" version="1.1">
 <metadata>
  <rdf:RDF xmlns:dc="http://purl.org/dc/elements/1.1/" xmlns:cc="http://creativecommons.org/ns#" xmlns:rdf="http://www.w3.org/1999/02/22-rdf-syntax-ns#">
   <cc:Work>
    <dc:type rdf:resource="http://purl.org/dc/dcmitype/StillImage"/>
    <dc:date>2025-10-22T08:27:20.929909</dc:date>
    <dc:format>image/svg+xml</dc:format>
    <dc:creator>
     <cc:Agent>
      <dc:title>Matplotlib v3.6.3, https://matplotlib.org/</dc:title>
     </cc:Agent>
    </dc:creator>
   </cc:Work>
  </rdf:RDF>
 </metadata>
 <defs>
  <style type="text/css">*{stroke-linejoin: round; stroke-linecap: butt}</style>
 </defs>
 <g id="figure_1">
  <g id="patch_1">
   <path d="M 0 165.168 
L 791.92 165.168 
L 791.92 0 
L 0 0 
z
"/>
  </g>
  <g id="axes_1">
   <g id="text_1">
    <!-- $R=\left\lfloor\frac{1}{N}\sum_{i=1}^{N}x_i\right\rfloor,\quad N=\min\!\left(\mathrm{calc\_min}(\mathrm{timeframe},\,RP),\,\left|df\right|\right)$ -->
    <g style="fill: #ffffff" transform="translate(21.6 92.664) scale(0.28 -0.28)">
     <defs>
      <path id="DejaVuSans-Oblique-52" d="M 1613 4147 
L 1294 2491 
L 2106 2491 
Q 2584 2491 2879 2755 
Q 3175 3019 3175 3444 
Q 3175 3784 2976 3965 
Q 2778 4147 2406 4147 
L 1613 4147 
z
M 2772 2241 
Q 2972 2194 3105 2009 
Q 3238 1825 3413 1275 
L 3809 0 
L 3144 0 
L 2778 1197 
Q 2638 1659 2453 1815 
Q 2269 1972 1888 1972 
L 1191 1972 
L 806 0 
L 172 0 
L 1081 4666 
L 2503 4666 
Q 3150 4666 3495 4373 
Q 3841 4081 3841 3531 
Q 3841 3044 3547 2687 
Q 3253 2331 2772 2241 
z
" transform="scale(0.015625)"/>
      <path id="DejaVuSans-3d" d="M 678 2906 
L 4684 2906 
L 4684 2381 
L 678 2381 
L 678 2906 
z
M 678 1631 
L 4684 1631 
L 4684 1100 
L 678 1100 
L 678 1631 
z
" transform="scale(0.015625)"/>
      <path id="STIXSizeFourSym-Regular-230a" d="M 4192 -3258 
L 1888 -3258 
L 1888 16422 
L 2496 16422 
L 2496 -2899 
L 4192 -2899 
L 4192 -3258 
z
" transform="scale(0.015625)"/>
      <path id="DejaVuSans-31" d="M 794 531 
L 1825 531 
L 1825 4091 
L 703 3866 
L 703 4441 
L 1819 4666 
L 2450 4666 
L 2450 531 
L 3481 531 
L 3481 0 
L 794 0 
L 794 531 
z
" transform="scale(0.015625)"/>
      <path id="DejaVuSans-Oblique-4e" d="M 1081 4666 
L 1931 4666 
L 3219 666 
L 4000 4666 
L 4616 4666 
L 3706 0 
L 2853 0 
L 1569 4025 
L 788 0 
L 172 0 
L 1081 4666 
z
" transform="scale(0.015625)"/>
      <path id="DejaVuSansDisplay-2211" d="M 244 6509 
L 5803 6509 
L 5803 5656 
L 1566 5656 
L 4534 2488 
L 1469 -888 
L 5919 -888 
L 5919 -1738 
L 109 -1738 
L 109 -1078 
L 3316 2463 
L 244 5728 
L 244 6509 
z
" transform="scale(0.015625)"/>
      <path id="DejaVuSans-Oblique-69" d="M 1172 4863 
L 1747 4863 
L 1606 4134 
L 1031 4134 
L 1172 4863 
z
M 909 3500 
L 1484 3500 
L 800 0 
L 225 0 
L 909 3500 
z
" transform="scale(0.015625)"/>
      <path id="DejaVuSans-Oblique-78" d="M 3841 3500 
L 2234 1784 
L 3219 0 
L 2559 0 
L 1819 1388 
L 531 0 
L -166 0 
L 1556 1844 
L 641 3500 
L 1300 3500 
L 1972 2234 
L 3144 3500 
L 3841 3500 
z
" transform="scale(0.015625)"/>
      <path id="STIXSizeFourSym-Regular-230b" d="M 2477 -3258 
L 173 -3258 
L 173 -2899 
L 1869 -2899 
L 1869 16422 
L 2477 16422 
L 2477 -3258 
z
" transform="scale(0.015625)"/>
      <path id="DejaVuSans-2c" d="M 750 794 
L 1409 794 
L 1409 256 
L 897 -744 
L 494 -744 
L 750 256 
L 750 794 
z
" transform="scale(0.015625)"/>
      <path id="DejaVuSans-6d" d="M 3328 2828 
Q 3544 3216 3844 3400 
Q 4144 3584 4550 3584 
Q 5097 3584 5394 3201 
Q 5691 2819 5691 2113 
L 5691 0 
L 5113 0 
L 5113 2094 
Q 5113 2597 4934 2840 
Q 4756 3084 4391 3084 
Q 3944 3084 3684 2787 
Q 3425 2491 3425 1978 
L 3425 0 
L 2847 0 
L 2847 2094 
Q 2847 2600 2669 2842 
Q 2491 3084 2119 3084 
Q 1678 3084 1418 2786 
Q 1159 2488 1159 1978 
L 1159 0 
L 581 0 
L 581 3500 
L 1159 3500 
L 1159 2956 
Q 1356 3278 1631 3431 
Q 1906 3584 2284 3584 
Q 2666 3584 2933 3390 
Q 3200 3197 3328 2828 
z
" transform="scale(0.015625)"/>
      <path id="DejaVuSans-69" d="M 603 3500 
L 1178 3500 
L 1178 0 
L 603 0 
L 603 3500 
z
M 603 4863 
L 1178 4863 
L 1178 4134 
L 603 4134 
L 603 4863 
z
" transform="scale(0.015625)"/>
      <path id="DejaVuSans-6e" d="M 3513 2113 
L 3513 0 
L 2938 0 
L 2938 2094 
Q 2938 2591 2744 2837 
Q 2550 3084 2163 3084 
Q 1697 3084 1428 2787 
Q 1159 2491 1159 1978 
L 1159 0 
L 581 0 
L 581 3500 
L 1159 3500 
L 1159 2956 
Q 1366 3272 1645 3428 
Q 1925 3584 2291 3584 
Q 2894 3584 3203 3211 
Q 3513 2838 3513 2113 
z
" transform="scale(0.015625)"/>
      <path id="DejaVuSans-28" d="M 1984 4856 
Q 1566 4138 1362 3434 
Q 1159 2731 1159 2009 
Q 1159 1288 1364 580 
Q 1569 -128 1984 -844 
L 1484 -844 
Q 1016 -109 783 600 
Q 550 1309 550 2009 
Q 550 2706 781 3412 
Q 1013 4119 1484 4856 
L 1984 4856 
z
" transform="scale(0.015625)"/>
      <path id="DejaVuSans-63" d="M 3122 3366 
L 3122 2828 
Q 2878 2963 2633 3030 
Q 2388 3097 2138 3097 
Q 1578 3097 1268 2742 
Q 959 2388 959 1747 
Q 959 1106 1268 751 
Q 1578 397 2138 397 
Q 2388 397 2633 464 
Q 2878 531 3122 666 
L 3122 134 
Q 2881 22 2623 -34 
Q 2366 -91 2075 -91 
Q 1284 -91 818 406 
Q 353 903 353 1747 
Q 353 2603 823 3093 
Q 1294 3584 2113 3584 
Q 2378 3584 2631 3529 
Q 2884 3475 3122 3366 
z
" transform="scale(0.015625)"/>
      <path id="DejaVuSans-61" d="M 2194 1759 
Q 1497 1759 1228 1600 
Q 959 1441 959 1056 
Q 959 750 1161 570 
Q 1363 391 1709 391 
Q 2188 391 2477 730 
Q 2766 1069 2766 1631 
L 2766 1759 
L 2194 1759 
z
M 3341 1997 
L 3341 0 
L 2766 0 
L 2766 531 
Q 2569 213 2275 61 
Q 1981 -91 1556 -91 
Q 1019 -91 701 211 
Q 384 513 384 1019 
Q 384 1609 779 1909 
Q 1175 2209 1959 2209 
L 2766 2209 
L 2766 2266 
Q 2766 2663 2505 2880 
Q 2244 3097 1772 3097 
Q 1472 3097 1187 3025 
Q 903 2953 641 2809 
L 641 3341 
Q 956 3463 1253 3523 
Q 1550 3584 1831 3584 
Q 2591 3584 2966 3190 
Q 3341 2797 3341 1997 
z
" transform="scale(0.015625)"/>
      <path id="DejaVuSans-6c" d="M 603 4863 
L 1178 4863 
L 1178 0 
L 603 0 
L 603 4863 
z
" transform="scale(0.015625)"/>
      <path id="DejaVuSans-5f" d="M 3263 -1063 
L 3263 -1509 
L -63 -1509 
L -63 -1063 
L 3263 -1063 
z
" transform="scale(0.015625)"/>
      <path id="DejaVuSans-74" d="M 1172 4494 
L 1172 3500 
L 2356 3500 
L 2356 3053 
L 1172 3053 
L 1172 1153 
Q 1172 725 1289 603 
Q 1406 481 1766 481 
L 2356 481 
L 2356 0 
L 1766 0 
Q 1100 0 847 248 
Q 594 497 594 1153 
L 594 3053 
L 172 3053 
L 172 3500 
L 594 3500 
L 594 4494 
L 1172 4494 
z
" transform="scale(0.015625)"/>
      <path id="DejaVuSans-65" d="M 3597 1894 
L 3597 1613 
L 953 1613 
Q 991 1019 1311 708 
Q 1631 397 2203 397 
Q 2534 397 2845 478 
Q 3156 559 3463 722 
L 3463 178 
Q 3153 47 2828 -22 
Q 2503 -91 2169 -91 
Q 1331 -91 842 396 
Q 353 884 353 1716 
Q 353 2575 817 3079 
Q 1281 3584 2069 3584 
Q 2775 3584 3186 3129 
Q 3597 2675 3597 1894 
z
M 3022 2063 
Q 3016 2534 2758 2815 
Q 2500 3097 2075 3097 
Q 1594 3097 1305 2825 
Q 1016 2553 972 2059 
L 3022 2063 
z
" transform="scale(0.015625)"/>
      <path id="DejaVuSans-66" d="M 2375 4863 
L 2375 4384 
L 1825 4384 
Q 1516 4384 1395 4259 
Q 1275 4134 1275 3809 
L 1275 3500 
L 2222 3500 
L 2222 3053 
L 1275 3053 
L 1275 0 
L 697 0 
L 697 3053 
L 147 3053 
L 147 3500 
L 697 3500 
L 697 3744 
Q 697 4328 969 4595 
Q 1241 4863 1831 4863 
L 2375 4863 
z
" transform="scale(0.015625)"/>
      <path id="DejaVuSans-72" d="M 2631 2963 
Q 2534 3019 2420 3045 
Q 2306 3072 2169 3072 
Q 1681 3072 1420 2755 
Q 1159 2438 1159 1844 
L 1159 0 
L 581 0 
L 581 3500 
L 1159 3500 
L 1159 2956 
Q 1341 3275 1631 3429 
Q 1922 3584 2338 3584 
Q 2397 3584 2469 3576 
Q 2541 3569 2628 3553 
L 2631 2963 
z
" transform="scale(0.015625)"/>
      <path id="DejaVuSans-Oblique-50" d="M 1081 4666 
L 2541 4666 
Q 3178 4666 3512 4369 
Q 3847 4072 3847 3500 
Q 3847 2731 3353 2303 
Q 2859 1875 1966 1875 
L 1172 1875 
L 806 0 
L 172 0 
L 1081 4666 
z
M 1613 4147 
L 1275 2394 
L 2069 2394 
Q 2606 2394 2893 2669 
Q 3181 2944 3181 3456 
Q 3181 3784 2986 3965 
Q 2791 4147 2438 4147 
L 1613 4147 
z
" transform="scale(0.015625)"/>
      <path id="DejaVuSans-29" d="M 513 4856 
L 1013 4856 
Q 1481 4119 1714 3412 
Q 1947 2706 1947 2009 
Q 1947 1309 1714 600 
Q 1481 -109 1013 -844 
L 513 -844 
Q 928 -128 1133 580 
Q 1338 1288 1338 2009 
Q 1338 2731 1133 3434 
Q 928 4138 513 4856 
z
" transform="scale(0.015625)"/>
      <path id="DejaVuSans-7c" d="M 1344 4891 
L 1344 -1509 
L 813 -1509 
L 813 4891 
L 1344 4891 
z
" transform="scale(0.015625)"/>
      <path id="DejaVuSans-Oblique-64" d="M 2675 525 
Q 2444 222 2128 65 
Q 1813 -91 1428 -91 
Q 903 -91 598 267 
Q 294 625 294 1247 
Q 294 1766 478 2236 
Q 663 2706 1013 3078 
Q 1244 3325 1534 3454 
Q 1825 3584 2144 3584 
Q 2481 3584 2739 3421 
Q 2997 3259 3138 2956 
L 3513 4863 
L 4091 4863 
L 3144 0 
L 2566 0 
L 2675 525 
z
M 891 1350 
Q 891 897 1095 644 
Q 1300 391 1663 391 
Q 1931 391 2161 520 
Q 2391 650 2566 903 
Q 2750 1166 2856 1509 
Q 2963 1853 2963 2188 
Q 2963 2622 2758 2865 
Q 2553 3109 2194 3109 
Q 1922 3109 1687 2981 
Q 1453 2853 1288 2613 
Q 1106 2353 998 2009 
Q 891 1666 891 1350 
z
" transform="scale(0.015625)"/>
      <path id="DejaVuSans-Oblique-66" d="M 3059 4863 
L 2969 4384 
L 2419 4384 
Q 2106 4384 1964 4261 
Q 1822 4138 1753 3809 
L 1691 3500 
L 2638 3500 
L 2553 3053 
L 1606 3053 
L 1013 0 
L 434 0 
L 1031 3053 
L 481 3053 
L 563 3500 
L 1113 3500 
L 1159 3744 
Q 1278 4363 1576 4613 
Q 1875 4863 2516 4863 
L 3059 4863 
z
" transform="scale(0.015625)"/>
     </defs>
     <use xlink:href="#DejaVuSans-Oblique-52" transform="translate(0 0.485938)"/>
     <use xlink:href="#DejaVuSans-3d" transform="translate(88.964844 0.485938)"/>
     <use xlink:href="#STIXSizeFourSym-Regular-230a" transform="translate(192.236328 -53.8125) scale(0.879944)"/>
     <use xlink:href="#DejaVuSans-31" transform="translate(256.252319 44.282813) scale(0.7)"/>
     <use xlink:href="#DejaVuSans-Oblique-4e" transform="translate(252.252319 -38.001562) scale(0.7)"/>
     <use xlink:href="#DejaVuSans-Oblique-4e" transform="translate(366.115601 120.939063) scale(0.7)"/>
     <use xlink:href="#DejaVuSansDisplay-2211" transform="translate(347.115601 0.485938)"/>
     <use xlink:href="#DejaVuSans-Oblique-69" transform="translate(317.115601 -98.609375) scale(0.7)"/>
     <use xlink:href="#DejaVuSans-3d" transform="translate(350.201538 -98.609375) scale(0.7)"/>
     <use xlink:href="#DejaVuSans-31" transform="translate(422.491577 -98.609375) scale(0.7)"/>
     <use xlink:href="#DejaVuSans-Oblique-78" transform="translate(467.02771 0.485938)"/>
     <use xlink:href="#DejaVuSans-Oblique-69" transform="translate(526.207397 -15.920312) scale(0.7)"/>
     <use xlink:href="#STIXSizeFourSym-Regular-230b" transform="translate(548.390015 -53.8125) scale(0.879944)"/>
     <use xlink:href="#DejaVuSans-2c" transform="translate(608.406006 0.485938)"/>
     <use xlink:href="#DejaVuSans-Oblique-4e" transform="translate(757.087646 0.485938)"/>
     <use xlink:href="#DejaVuSans-3d" transform="translate(851.374756 0.485938)"/>
     <use xlink:href="#DejaVuSans-6d" transform="translate(954.64624 0.485938)"/>
     <use xlink:href="#DejaVuSans-69" transform="translate(1052.05835 0.485938)"/>
     <use xlink:href="#DejaVuSans-6e" transform="translate(1079.841553 0.485938)"/>
     <use xlink:href="#DejaVuSans-28" transform="translate(1126.984783 0.485938)"/>
     <use xlink:href="#DejaVuSans-63" transform="translate(1165.998455 0.485938)"/>
     <use xlink:href="#DejaVuSans-61" transform="translate(1220.978923 0.485938)"/>
     <use xlink:href="#DejaVuSans-6c" transform="translate(1282.25822 0.485938)"/>
     <use xlink:href="#DejaVuSans-63" transform="translate(1310.041423 0.485938)"/>
     <use xlink:href="#DejaVuSans-5f" transform="translate(1365.021892 0.485938)"/>
     <use xlink:href="#DejaVuSans-6d" transform="translate(1415.021892 0.485938)"/>
     <use xlink:href="#DejaVuSans-69" transform="translate(1512.434001 0.485938)"/>
     <use xlink:href="#DejaVuSans-6e" transform="translate(1540.217205 0.485938)"/>
     <use xlink:href="#DejaVuSans-28" transform="translate(1603.596111 0.485938)"/>
     <use xlink:href="#DejaVuSans-74" transform="translate(1642.609783 0.485938)"/>
     <use xlink:href="#DejaVuSans-69" transform="translate(1681.818767 0.485938)"/>
     <use xlink:href="#DejaVuSans-6d" transform="translate(1709.60197 0.485938)"/>
     <use xlink:href="#DejaVuSans-65" transform="translate(1807.01408 0.485938)"/>
     <use xlink:href="#DejaVuSans-66" transform="translate(1868.537517 0.485938)"/>
     <use xlink:href="#DejaVuSans-72" transform="translate(1903.742595 0.485938)"/>
     <use xlink:href="#DejaVuSans-61" transform="translate(1944.855876 0.485938)"/>
     <use xlink:href="#DejaVuSans-6d" transform="translate(2006.135173 0.485938)"/>
     <use xlink:href="#DejaVuSans-65" transform="translate(2103.547283 0.485938)"/>
     <use xlink:href="#DejaVuSans-2c" transform="translate(2165.07072 0.485938)"/>
     <use xlink:href="#DejaVuSans-Oblique-52" transform="translate(2232.575928 0.485938)"/>
     <use xlink:href="#DejaVuSans-Oblique-50" transform="translate(2302.05835 0.485938)"/>
     <use xlink:href="#DejaVuSans-29" transform="translate(2362.361084 0.485938)"/>
     <use xlink:href="#DejaVuSans-2c" transform="translate(2401.374756 0.485938)"/>
     <use xlink:href="#DejaVuSans-7c" transform="translate(2468.879963 0.485938)"/>
     <use xlink:href="#DejaVuSans-Oblique-64" transform="translate(2502.57137 0.485938)"/>
     <use xlink:href="#DejaVuSans-Oblique-66" transform="translate(2566.047932 0.485938)"/>
     <use xlink:href="#DejaVuSans-7c" transform="translate(2601.25301 0.485938)"/>
     <use xlink:href="#DejaVuSans-29" transform="translate(2634.944417 0.485938)"/>
     <path d="M 252.252319 19.282813 
L 252.252319 25.532813 
L 304.615601 25.532813 
L 304.615601 19.282813 
L 252.252319 19.282813 
z
"/>
    </g>
   </g>
  </g>
 </g>
</svg>
