<?xml version="1.0" encoding="utf-8" standalone="no"?>
<!DOCTYPE svg PUBLIC "-//W3C//DTD SVG 1.1//EN"
  "http://www.w3.org/Graphics/SVG/1.1/DTD/svg11.dtd">
<svg xmlns:xlink="http://www.w3.org/1999/xlink" width="820.72pt" height="339.782841pt" viewBox="0 0 820.72 339.782841" xmlns="http://www.w3.org/2000/svg" version="1.1">
 <metadata>
  <rdf:RDF xmlns:dc="http://purl.org/dc/elements/1.1/" xmlns:cc="http://creativecommons.org/ns#" xmlns:rdf="http://www.w3.org/1999/02/22-rdf-syntax-ns#">
   <cc:Work>
    <dc:type rdf:resource="http://purl.org/dc/dcmitype/StillImage"/>
    <dc:date>2025-10-22T08:28:09.933697</dc:date>
    <dc:format>image/svg+xml</dc:format>
    <dc:creator>
     <cc:Agent>
      <dc:title>Matplotlib v3.6.3, https://matplotlib.org/</dc:title>
     </cc:Agent>
    </dc:creator>
   </cc:Work>
  </rdf:RDF>
 </metadata>
 <defs>
  <style type="text/css">*{stroke-linejoin: round; stroke-linecap: butt}</style>
 </defs>
 <g id="figure_1">
  <g id="patch_1">
   <path d="M 0 339.782841 
L 820.72 339.782841 
L 820.72 0 
L 0 0 
z
"/>
  </g>
  <g id="axes_1">
   <g id="text_1">
    <!-- $R=\left\lfloor\frac{1}{N}\sum_{i=1}^{N}x_i\right\rfloor,\quad N=\min\!\left(\mathrm{calc\_min}(\mathrm{timeframe},\,RP),\,\left|df\right|\right)$ -->
    <g style="fill: #ffffff" transform="translate(36 97.30656) scale(0.28 -0.28)">
     <defs>
      <path id="DejaVuSans-Oblique-52" d="M 1613 4147 
L 1294 2491 
L 2106 2491 
Q 2584 2491 2879 2755 
Q 3175 3019 3175 3444 
Q 3175 3784 2976 3965 
Q 2778 4147 2406 4147 
L 1613 4147 
z
M 2772 2241 
Q 2972 2194 3105 2009 
Q 3238 1825 3413 1275 
L 3809 0 
L 3144 0 
L 2778 1197 
Q 2638 1659 2453 1815 
Q 2269 1972 1888 1972 
L 1191 1972 
L 806 0 
L 172 0 
L 1081 4666 
L 2503 4666 
Q 3150 4666 3495 4373 
Q 3841 4081 3841 3531 
Q 3841 3044 3547 2687 
Q 3253 2331 2772 2241 
z
" transform="scale(0.015625)"/>
      <path id="DejaVuSans-3d" d="M 678 2906 
L 4684 2906 
L 4684 2381 
L 678 2381 
L 678 2906 
z
M 678 1631 
L 4684 1631 
L 4684 1100 
L 678 1100 
L 678 1631 
z
" transform="scale(0.015625)"/>
      <path id="STIXSizeFourSym-Regular-230a" d="M 4192 -3258 
L 1888 -3258 
L 1888 16422 
L 2496 16422 
L 2496 -2899 
L 4192 -2899 
L 4192 -3258 
z
" transform="scale(0.015625)"/>
      <path id="DejaVuSans-31" d="M 794 531 
L 1825 531 
L 1825 4091 
L 703 3866 
L 703 4441 
L 1819 4666 
L 2450 4666 
L 2450 531 
L 3481 531 
L 3481 0 
L 794 0 
L 794 531 
z
" transform="scale(0.015625)"/>
      <path id="DejaVuSans-Oblique-4e" d="M 1081 4666 
L 1931 4666 
L 3219 666 
L 4000 4666 
L 4616 4666 
L 3706 0 
L 2853 0 
L 1569 4025 
L 788 0 
L 172 0 
L 1081 4666 
z
" transform="scale(0.015625)"/>
      <path id="DejaVuSansDisplay-2211" d="M 244 6509 
L 5803 6509 
L 5803 5656 
L 1566 5656 
L 4534 2488 
L 1469 -888 
L 5919 -888 
L 5919 -1738 
L 109 -1738 
L 109 -1078 
L 3316 2463 
L 244 5728 
L 244 6509 
z
" transform="scale(0.015625)"/>
      <path id="DejaVuSans-Oblique-69" d="M 1172 4863 
L 1747 4863 
L 1606 4134 
L 1031 4134 
L 1172 4863 
z
M 909 3500 
L 1484 3500 
L 800 0 
L 225 0 
L 909 3500 
z
" transform="scale(0.015625)"/>
      <path id="DejaVuSans-Oblique-78" d="M 3841 3500 
L 2234 1784 
L 3219 0 
L 2559 0 
L 1819 1388 
L 531 0 
L -166 0 
L 1556 1844 
L 641 3500 
L 1300 3500 
L 1972 2234 
L 3144 3500 
L 3841 3500 
z
" transform="scale(0.015625)"/>
      <path id="STIXSizeFourSym-Regular-230b" d="M 2477 -3258 
L 173 -3258 
L 173 -2899 
L 1869 -2899 
L 1869 16422 
L 2477 16422 
L 2477 -3258 
z
" transform="scale(0.015625)"/>
      <path id="DejaVuSans-2c" d="M 750 794 
L 1409 794 
L 1409 256 
L 897 -744 
L 494 -744 
L 750 256 
L 750 794 
z
" transform="scale(0.015625)"/>
      <path id="DejaVuSans-6d" d="M 3328 2828 
Q 3544 3216 3844 3400 
Q 4144 3584 4550 3584 
Q 5097 3584 5394 3201 
Q 5691 2819 5691 2113 
L 5691 0 
L 5113 0 
L 5113 2094 
Q 5113 2597 4934 2840 
Q 4756 3084 4391 3084 
Q 3944 3084 3684 2787 
Q 3425 2491 3425 1978 
L 3425 0 
L 2847 0 
L 2847 2094 
Q 2847 2600 2669 2842 
Q 2491 3084 2119 3084 
Q 1678 3084 1418 2786 
Q 1159 2488 1159 1978 
L 1159 0 
L 581 0 
L 581 3500 
L 1159 3500 
L 1159 2956 
Q 1356 3278 1631 3431 
Q 1906 3584 2284 3584 
Q 2666 3584 2933 3390 
Q 3200 3197 3328 2828 
z
" transform="scale(0.015625)"/>
      <path id="DejaVuSans-69" d="M 603 3500 
L 1178 3500 
L 1178 0 
L 603 0 
L 603 3500 
z
M 603 4863 
L 1178 4863 
L 1178 4134 
L 603 4134 
L 603 4863 
z
" transform="scale(0.015625)"/>
      <path id="DejaVuSans-6e" d="M 3513 2113 
L 3513 0 
L 2938 0 
L 2938 2094 
Q 2938 2591 2744 2837 
Q 2550 3084 2163 3084 
Q 1697 3084 1428 2787 
Q 1159 2491 1159 1978 
L 1159 0 
L 581 0 
L 581 3500 
L 1159 3500 
L 1159 2956 
Q 1366 3272 1645 3428 
Q 1925 3584 2291 3584 
Q 2894 3584 3203 3211 
Q 3513 2838 3513 2113 
z
" transform="scale(0.015625)"/>
      <path id="DejaVuSans-28" d="M 1984 4856 
Q 1566 4138 1362 3434 
Q 1159 2731 1159 2009 
Q 1159 1288 1364 580 
Q 1569 -128 1984 -844 
L 1484 -844 
Q 1016 -109 783 600 
Q 550 1309 550 2009 
Q 550 2706 781 3412 
Q 1013 4119 1484 4856 
L 1984 4856 
z
" transform="scale(0.015625)"/>
      <path id="DejaVuSans-63" d="M 3122 3366 
L 3122 2828 
Q 2878 2963 2633 3030 
Q 2388 3097 2138 3097 
Q 1578 3097 1268 2742 
Q 959 2388 959 1747 
Q 959 1106 1268 751 
Q 1578 397 2138 397 
Q 2388 397 2633 464 
Q 2878 531 3122 666 
L 3122 134 
Q 2881 22 2623 -34 
Q 2366 -91 2075 -91 
Q 1284 -91 818 406 
Q 353 903 353 1747 
Q 353 2603 823 3093 
Q 1294 3584 2113 3584 
Q 2378 3584 2631 3529 
Q 2884 3475 3122 3366 
z
" transform="scale(0.015625)"/>
      <path id="DejaVuSans-61" d="M 2194 1759 
Q 1497 1759 1228 1600 
Q 959 1441 959 1056 
Q 959 750 1161 570 
Q 1363 391 1709 391 
Q 2188 391 2477 730 
Q 2766 1069 2766 1631 
L 2766 1759 
L 2194 1759 
z
M 3341 1997 
L 3341 0 
L 2766 0 
L 2766 531 
Q 2569 213 2275 61 
Q 1981 -91 1556 -91 
Q 1019 -91 701 211 
Q 384 513 384 1019 
Q 384 1609 779 1909 
Q 1175 2209 1959 2209 
L 2766 2209 
L 2766 2266 
Q 2766 2663 2505 2880 
Q 2244 3097 1772 3097 
Q 1472 3097 1187 3025 
Q 903 2953 641 2809 
L 641 3341 
Q 956 3463 1253 3523 
Q 1550 3584 1831 3584 
Q 2591 3584 2966 3190 
Q 3341 2797 3341 1997 
z
" transform="scale(0.015625)"/>
      <path id="DejaVuSans-6c" d="M 603 4863 
L 1178 4863 
L 1178 0 
L 603 0 
L 603 4863 
z
" transform="scale(0.015625)"/>
      <path id="DejaVuSans-5f" d="M 3263 -1063 
L 3263 -1509 
L -63 -1509 
L -63 -1063 
L 3263 -1063 
z
" transform="scale(0.015625)"/>
      <path id="DejaVuSans-74" d="M 1172 4494 
L 1172 3500 
L 2356 3500 
L 2356 3053 
L 1172 3053 
L 1172 1153 
Q 1172 725 1289 603 
Q 1406 481 1766 481 
L 2356 481 
L 2356 0 
L 1766 0 
Q 1100 0 847 248 
Q 594 497 594 1153 
L 594 3053 
L 172 3053 
L 172 3500 
L 594 3500 
L 594 4494 
L 1172 4494 
z
" transform="scale(0.015625)"/>
      <path id="DejaVuSans-65" d="M 3597 1894 
L 3597 1613 
L 953 1613 
Q 991 1019 1311 708 
Q 1631 397 2203 397 
Q 2534 397 2845 478 
Q 3156 559 3463 722 
L 3463 178 
Q 3153 47 2828 -22 
Q 2503 -91 2169 -91 
Q 1331 -91 842 396 
Q 353 884 353 1716 
Q 353 2575 817 3079 
Q 1281 3584 2069 3584 
Q 2775 3584 3186 3129 
Q 3597 2675 3597 1894 
z
M 3022 2063 
Q 3016 2534 2758 2815 
Q 2500 3097 2075 3097 
Q 1594 3097 1305 2825 
Q 1016 2553 972 2059 
L 3022 2063 
z
" transform="scale(0.015625)"/>
      <path id="DejaVuSans-66" d="M 2375 4863 
L 2375 4384 
L 1825 4384 
Q 1516 4384 1395 4259 
Q 1275 4134 1275 3809 
L 1275 3500 
L 2222 3500 
L 2222 3053 
L 1275 3053 
L 1275 0 
L 697 0 
L 697 3053 
L 147 3053 
L 147 3500 
L 697 3500 
L 697 3744 
Q 697 4328 969 4595 
Q 1241 4863 1831 4863 
L 2375 4863 
z
" transform="scale(0.015625)"/>
      <path id="DejaVuSans-72" d="M 2631 2963 
Q 2534 3019 2420 3045 
Q 2306 3072 2169 3072 
Q 1681 3072 1420 2755 
Q 1159 2438 1159 1844 
L 1159 0 
L 581 0 
L 581 3500 
L 1159 3500 
L 1159 2956 
Q 1341 3275 1631 3429 
Q 1922 3584 2338 3584 
Q 2397 3584 2469 3576 
Q 2541 3569 2628 3553 
L 2631 2963 
z
" transform="scale(0.015625)"/>
      <path id="DejaVuSans-Oblique-50" d="M 1081 4666 
L 2541 4666 
Q 3178 4666 3512 4369 
Q 3847 4072 3847 3500 
Q 3847 2731 3353 2303 
Q 2859 1875 1966 1875 
L 1172 1875 
L 806 0 
L 172 0 
L 1081 4666 
z
M 1613 4147 
L 1275 2394 
L 2069 2394 
Q 2606 2394 2893 2669 
Q 3181 2944 3181 3456 
Q 3181 3784 2986 3965 
Q 2791 4147 2438 4147 
L 1613 4147 
z
" transform="scale(0.015625)"/>
      <path id="DejaVuSans-29" d="M 513 4856 
L 1013 4856 
Q 1481 4119 1714 3412 
Q 1947 2706 1947 2009 
Q 1947 1309 1714 600 
Q 1481 -109 1013 -844 
L 513 -844 
Q 928 -128 1133 580 
Q 1338 1288 1338 2009 
Q 1338 2731 1133 3434 
Q 928 4138 513 4856 
z
" transform="scale(0.015625)"/>
      <path id="DejaVuSans-7c" d="M 1344 4891 
L 1344 -1509 
L 813 -1509 
L 813 4891 
L 1344 4891 
z
" transform="scale(0.015625)"/>
      <path id="DejaVuSans-Oblique-64" d="M 2675 525 
Q 2444 222 2128 65 
Q 1813 -91 1428 -91 
Q 903 -91 598 267 
Q 294 625 294 1247 
Q 294 1766 478 2236 
Q 663 2706 1013 3078 
Q 1244 3325 1534 3454 
Q 1825 3584 2144 3584 
Q 2481 3584 2739 3421 
Q 2997 3259 3138 2956 
L 3513 4863 
L 4091 4863 
L 3144 0 
L 2566 0 
L 2675 525 
z
M 891 1350 
Q 891 897 1095 644 
Q 1300 391 1663 391 
Q 1931 391 2161 520 
Q 2391 650 2566 903 
Q 2750 1166 2856 1509 
Q 2963 1853 2963 2188 
Q 2963 2622 2758 2865 
Q 2553 3109 2194 3109 
Q 1922 3109 1687 2981 
Q 1453 2853 1288 2613 
Q 1106 2353 998 2009 
Q 891 1666 891 1350 
z
" transform="scale(0.015625)"/>
      <path id="DejaVuSans-Oblique-66" d="M 3059 4863 
L 2969 4384 
L 2419 4384 
Q 2106 4384 1964 4261 
Q 1822 4138 1753 3809 
L 1691 3500 
L 2638 3500 
L 2553 3053 
L 1606 3053 
L 1013 0 
L 434 0 
L 1031 3053 
L 481 3053 
L 563 3500 
L 1113 3500 
L 1159 3744 
Q 1278 4363 1576 4613 
Q 1875 4863 2516 4863 
L 3059 4863 
z
" transform="scale(0.015625)"/>
     </defs>
     <use xlink:href="#DejaVuSans-Oblique-52" transform="translate(0 0.485938)"/>
     <use xlink:href="#DejaVuSans-3d" transform="translate(88.964844 0.485938)"/>
     <use xlink:href="#STIXSizeFourSym-Regular-230a" transform="translate(192.236328 -53.8125) scale(0.879944)"/>
     <use xlink:href="#DejaVuSans-31" transform="translate(256.252319 44.282813) scale(0.7)"/>
     <use xlink:href="#DejaVuSans-Oblique-4e" transform="translate(252.252319 -38.001562) scale(0.7)"/>
     <use xlink:href="#DejaVuSans-Oblique-4e" transform="translate(366.115601 120.939063) scale(0.7)"/>
     <use xlink:href="#DejaVuSansDisplay-2211" transform="translate(347.115601 0.485938)"/>
     <use xlink:href="#DejaVuSans-Oblique-69" transform="translate(317.115601 -98.609375) scale(0.7)"/>
     <use xlink:href="#DejaVuSans-3d" transform="translate(350.201538 -98.609375) scale(0.7)"/>
     <use xlink:href="#DejaVuSans-31" transform="translate(422.491577 -98.609375) scale(0.7)"/>
     <use xlink:href="#DejaVuSans-Oblique-78" transform="translate(467.02771 0.485938)"/>
     <use xlink:href="#DejaVuSans-Oblique-69" transform="translate(526.207397 -15.920312) scale(0.7)"/>
     <use xlink:href="#STIXSizeFourSym-Regular-230b" transform="translate(548.390015 -53.8125) scale(0.879944)"/>
     <use xlink:href="#DejaVuSans-2c" transform="translate(608.406006 0.485938)"/>
     <use xlink:href="#DejaVuSans-Oblique-4e" transform="translate(757.087646 0.485938)"/>
     <use xlink:href="#DejaVuSans-3d" transform="translate(851.374756 0.485938)"/>
     <use xlink:href="#DejaVuSans-6d" transform="translate(954.64624 0.485938)"/>
     <use xlink:href="#DejaVuSans-69" transform="translate(1052.05835 0.485938)"/>
     <use xlink:href="#DejaVuSans-6e" transform="translate(1079.841553 0.485938)"/>
     <use xlink:href="#DejaVuSans-28" transform="translate(1126.984783 0.485938)"/>
     <use xlink:href="#DejaVuSans-63" transform="translate(1165.998455 0.485938)"/>
     <use xlink:href="#DejaVuSans-61" transform="translate(1220.978923 0.485938)"/>
     <use xlink:href="#DejaVuSans-6c" transform="translate(1282.25822 0.485938)"/>
     <use xlink:href="#DejaVuSans-63" transform="translate(1310.041423 0.485938)"/>
     <use xlink:href="#DejaVuSans-5f" transform="translate(1365.021892 0.485938)"/>
     <use xlink:href="#DejaVuSans-6d" transform="translate(1415.021892 0.485938)"/>
     <use xlink:href="#DejaVuSans-69" transform="translate(1512.434001 0.485938)"/>
     <use xlink:href="#DejaVuSans-6e" transform="translate(1540.217205 0.485938)"/>
     <use xlink:href="#DejaVuSans-28" transform="translate(1603.596111 0.485938)"/>
     <use xlink:href="#DejaVuSans-74" transform="translate(1642.609783 0.485938)"/>
     <use xlink:href="#DejaVuSans-69" transform="translate(1681.818767 0.485938)"/>
     <use xlink:href="#DejaVuSans-6d" transform="translate(1709.60197 0.485938)"/>
     <use xlink:href="#DejaVuSans-65" transform="translate(1807.01408 0.485938)"/>
     <use xlink:href="#DejaVuSans-66" transform="translate(1868.537517 0.485938)"/>
     <use xlink:href="#DejaVuSans-72" transform="translate(1903.742595 0.485938)"/>
     <use xlink:href="#DejaVuSans-61" transform="translate(1944.855876 0.485938)"/>
     <use xlink:href="#DejaVuSans-6d" transform="translate(2006.135173 0.485938)"/>
     <use xlink:href="#DejaVuSans-65" transform="translate(2103.547283 0.485938)"/>
     <use xlink:href="#DejaVuSans-2c" transform="translate(2165.07072 0.485938)"/>
     <use xlink:href="#DejaVuSans-Oblique-52" transform="translate(2232.575928 0.485938)"/>
     <use xlink:href="#DejaVuSans-Oblique-50" transform="translate(2302.05835 0.485938)"/>
     <use xlink:href="#DejaVuSans-29" transform="translate(2362.361084 0.485938)"/>
     <use xlink:href="#DejaVuSans-2c" transform="translate(2401.374756 0.485938)"/>
     <use xlink:href="#DejaVuSans-7c" transform="translate(2468.879963 0.485938)"/>
     <use xlink:href="#DejaVuSans-Oblique-64" transform="translate(2502.57137 0.485938)"/>
     <use xlink:href="#DejaVuSans-Oblique-66" transform="translate(2566.047932 0.485938)"/>
     <use xlink:href="#DejaVuSans-7c" transform="translate(2601.25301 0.485938)"/>
     <use xlink:href="#DejaVuSans-29" transform="translate(2634.944417 0.485938)"/>
     <path d="M 252.252319 19.282813 
L 252.252319 25.532813 
L 304.615601 25.532813 
L 304.615601 19.282813 
L 252.252319 19.282813 
z
"/>
    </g>
   </g>
   <g id="text_2">
    <!-- Where: -->
    <g style="fill: #ffffff" transform="translate(109.04 198.748856) scale(0.15 -0.15)">
     <defs>
      <path id="DejaVuSans-57" d="M 213 4666 
L 850 4666 
L 1831 722 
L 2809 4666 
L 3519 4666 
L 4500 722 
L 5478 4666 
L 6119 4666 
L 4947 0 
L 4153 0 
L 3169 4050 
L 2175 0 
L 1381 0 
L 213 4666 
z
" transform="scale(0.015625)"/>
      <path id="DejaVuSans-68" d="M 3513 2113 
L 3513 0 
L 2938 0 
L 2938 2094 
Q 2938 2591 2744 2837 
Q 2550 3084 2163 3084 
Q 1697 3084 1428 2787 
Q 1159 2491 1159 1978 
L 1159 0 
L 581 0 
L 581 4863 
L 1159 4863 
L 1159 2956 
Q 1366 3272 1645 3428 
Q 1925 3584 2291 3584 
Q 2894 3584 3203 3211 
Q 3513 2838 3513 2113 
z
" transform="scale(0.015625)"/>
      <path id="DejaVuSans-3a" d="M 750 794 
L 1409 794 
L 1409 0 
L 750 0 
L 750 794 
z
M 750 3309 
L 1409 3309 
L 1409 2516 
L 750 2516 
L 750 3309 
z
" transform="scale(0.015625)"/>
     </defs>
     <use xlink:href="#DejaVuSans-57"/>
     <use xlink:href="#DejaVuSans-68" x="98.876953"/>
     <use xlink:href="#DejaVuSans-65" x="162.255859"/>
     <use xlink:href="#DejaVuSans-72" x="223.779297"/>
     <use xlink:href="#DejaVuSans-65" x="262.642578"/>
     <use xlink:href="#DejaVuSans-3a" x="324.166016"/>
    </g>
    <!-- RP = Return Period (1, 2, 5, 10, or 20 years) -->
    <g style="fill: #ffffff" transform="translate(109.04 218.964872) scale(0.15 -0.15)">
     <defs>
      <path id="DejaVuSans-52" d="M 2841 2188 
Q 3044 2119 3236 1894 
Q 3428 1669 3622 1275 
L 4263 0 
L 3584 0 
L 2988 1197 
Q 2756 1666 2539 1819 
Q 2322 1972 1947 1972 
L 1259 1972 
L 1259 0 
L 628 0 
L 628 4666 
L 2053 4666 
Q 2853 4666 3247 4331 
Q 3641 3997 3641 3322 
Q 3641 2881 3436 2590 
Q 3231 2300 2841 2188 
z
M 1259 4147 
L 1259 2491 
L 2053 2491 
Q 2509 2491 2742 2702 
Q 2975 2913 2975 3322 
Q 2975 3731 2742 3939 
Q 2509 4147 2053 4147 
L 1259 4147 
z
" transform="scale(0.015625)"/>
      <path id="DejaVuSans-50" d="M 1259 4147 
L 1259 2394 
L 2053 2394 
Q 2494 2394 2734 2622 
Q 2975 2850 2975 3272 
Q 2975 3691 2734 3919 
Q 2494 4147 2053 4147 
L 1259 4147 
z
M 628 4666 
L 2053 4666 
Q 2838 4666 3239 4311 
Q 3641 3956 3641 3272 
Q 3641 2581 3239 2228 
Q 2838 1875 2053 1875 
L 1259 1875 
L 1259 0 
L 628 0 
L 628 4666 
z
" transform="scale(0.015625)"/>
      <path id="DejaVuSans-20" transform="scale(0.015625)"/>
      <path id="DejaVuSans-75" d="M 544 1381 
L 544 3500 
L 1119 3500 
L 1119 1403 
Q 1119 906 1312 657 
Q 1506 409 1894 409 
Q 2359 409 2629 706 
Q 2900 1003 2900 1516 
L 2900 3500 
L 3475 3500 
L 3475 0 
L 2900 0 
L 2900 538 
Q 2691 219 2414 64 
Q 2138 -91 1772 -91 
Q 1169 -91 856 284 
Q 544 659 544 1381 
z
M 1991 3584 
L 1991 3584 
z
" transform="scale(0.015625)"/>
      <path id="DejaVuSans-6f" d="M 1959 3097 
Q 1497 3097 1228 2736 
Q 959 2375 959 1747 
Q 959 1119 1226 758 
Q 1494 397 1959 397 
Q 2419 397 2687 759 
Q 2956 1122 2956 1747 
Q 2956 2369 2687 2733 
Q 2419 3097 1959 3097 
z
M 1959 3584 
Q 2709 3584 3137 3096 
Q 3566 2609 3566 1747 
Q 3566 888 3137 398 
Q 2709 -91 1959 -91 
Q 1206 -91 779 398 
Q 353 888 353 1747 
Q 353 2609 779 3096 
Q 1206 3584 1959 3584 
z
" transform="scale(0.015625)"/>
      <path id="DejaVuSans-64" d="M 2906 2969 
L 2906 4863 
L 3481 4863 
L 3481 0 
L 2906 0 
L 2906 525 
Q 2725 213 2448 61 
Q 2172 -91 1784 -91 
Q 1150 -91 751 415 
Q 353 922 353 1747 
Q 353 2572 751 3078 
Q 1150 3584 1784 3584 
Q 2172 3584 2448 3432 
Q 2725 3281 2906 2969 
z
M 947 1747 
Q 947 1113 1208 752 
Q 1469 391 1925 391 
Q 2381 391 2643 752 
Q 2906 1113 2906 1747 
Q 2906 2381 2643 2742 
Q 2381 3103 1925 3103 
Q 1469 3103 1208 2742 
Q 947 2381 947 1747 
z
" transform="scale(0.015625)"/>
      <path id="DejaVuSans-32" d="M 1228 531 
L 3431 531 
L 3431 0 
L 469 0 
L 469 531 
Q 828 903 1448 1529 
Q 2069 2156 2228 2338 
Q 2531 2678 2651 2914 
Q 2772 3150 2772 3378 
Q 2772 3750 2511 3984 
Q 2250 4219 1831 4219 
Q 1534 4219 1204 4116 
Q 875 4013 500 3803 
L 500 4441 
Q 881 4594 1212 4672 
Q 1544 4750 1819 4750 
Q 2544 4750 2975 4387 
Q 3406 4025 3406 3419 
Q 3406 3131 3298 2873 
Q 3191 2616 2906 2266 
Q 2828 2175 2409 1742 
Q 1991 1309 1228 531 
z
" transform="scale(0.015625)"/>
      <path id="DejaVuSans-35" d="M 691 4666 
L 3169 4666 
L 3169 4134 
L 1269 4134 
L 1269 2991 
Q 1406 3038 1543 3061 
Q 1681 3084 1819 3084 
Q 2600 3084 3056 2656 
Q 3513 2228 3513 1497 
Q 3513 744 3044 326 
Q 2575 -91 1722 -91 
Q 1428 -91 1123 -41 
Q 819 9 494 109 
L 494 744 
Q 775 591 1075 516 
Q 1375 441 1709 441 
Q 2250 441 2565 725 
Q 2881 1009 2881 1497 
Q 2881 1984 2565 2268 
Q 2250 2553 1709 2553 
Q 1456 2553 1204 2497 
Q 953 2441 691 2322 
L 691 4666 
z
" transform="scale(0.015625)"/>
      <path id="DejaVuSans-30" d="M 2034 4250 
Q 1547 4250 1301 3770 
Q 1056 3291 1056 2328 
Q 1056 1369 1301 889 
Q 1547 409 2034 409 
Q 2525 409 2770 889 
Q 3016 1369 3016 2328 
Q 3016 3291 2770 3770 
Q 2525 4250 2034 4250 
z
M 2034 4750 
Q 2819 4750 3233 4129 
Q 3647 3509 3647 2328 
Q 3647 1150 3233 529 
Q 2819 -91 2034 -91 
Q 1250 -91 836 529 
Q 422 1150 422 2328 
Q 422 3509 836 4129 
Q 1250 4750 2034 4750 
z
" transform="scale(0.015625)"/>
      <path id="DejaVuSans-79" d="M 2059 -325 
Q 1816 -950 1584 -1140 
Q 1353 -1331 966 -1331 
L 506 -1331 
L 506 -850 
L 844 -850 
Q 1081 -850 1212 -737 
Q 1344 -625 1503 -206 
L 1606 56 
L 191 3500 
L 800 3500 
L 1894 763 
L 2988 3500 
L 3597 3500 
L 2059 -325 
z
" transform="scale(0.015625)"/>
      <path id="DejaVuSans-73" d="M 2834 3397 
L 2834 2853 
Q 2591 2978 2328 3040 
Q 2066 3103 1784 3103 
Q 1356 3103 1142 2972 
Q 928 2841 928 2578 
Q 928 2378 1081 2264 
Q 1234 2150 1697 2047 
L 1894 2003 
Q 2506 1872 2764 1633 
Q 3022 1394 3022 966 
Q 3022 478 2636 193 
Q 2250 -91 1575 -91 
Q 1294 -91 989 -36 
Q 684 19 347 128 
L 347 722 
Q 666 556 975 473 
Q 1284 391 1588 391 
Q 1994 391 2212 530 
Q 2431 669 2431 922 
Q 2431 1156 2273 1281 
Q 2116 1406 1581 1522 
L 1381 1569 
Q 847 1681 609 1914 
Q 372 2147 372 2553 
Q 372 3047 722 3315 
Q 1072 3584 1716 3584 
Q 2034 3584 2315 3537 
Q 2597 3491 2834 3397 
z
" transform="scale(0.015625)"/>
     </defs>
     <use xlink:href="#DejaVuSans-52"/>
     <use xlink:href="#DejaVuSans-50" x="69.482422"/>
     <use xlink:href="#DejaVuSans-20" x="129.785156"/>
     <use xlink:href="#DejaVuSans-3d" x="161.572266"/>
     <use xlink:href="#DejaVuSans-20" x="245.361328"/>
     <use xlink:href="#DejaVuSans-52" x="277.148438"/>
     <use xlink:href="#DejaVuSans-65" x="342.130859"/>
     <use xlink:href="#DejaVuSans-74" x="403.654297"/>
     <use xlink:href="#DejaVuSans-75" x="442.863281"/>
     <use xlink:href="#DejaVuSans-72" x="506.242188"/>
     <use xlink:href="#DejaVuSans-6e" x="545.605469"/>
     <use xlink:href="#DejaVuSans-20" x="608.984375"/>
     <use xlink:href="#DejaVuSans-50" x="640.771484"/>
     <use xlink:href="#DejaVuSans-65" x="697.449219"/>
     <use xlink:href="#DejaVuSans-72" x="758.972656"/>
     <use xlink:href="#DejaVuSans-69" x="800.085938"/>
     <use xlink:href="#DejaVuSans-6f" x="827.869141"/>
     <use xlink:href="#DejaVuSans-64" x="889.050781"/>
     <use xlink:href="#DejaVuSans-20" x="952.527344"/>
     <use xlink:href="#DejaVuSans-28" x="984.314453"/>
     <use xlink:href="#DejaVuSans-31" x="1023.328125"/>
     <use xlink:href="#DejaVuSans-2c" x="1086.951172"/>
     <use xlink:href="#DejaVuSans-20" x="1118.738281"/>
     <use xlink:href="#DejaVuSans-32" x="1150.525391"/>
     <use xlink:href="#DejaVuSans-2c" x="1214.148438"/>
     <use xlink:href="#DejaVuSans-20" x="1245.935547"/>
     <use xlink:href="#DejaVuSans-35" x="1277.722656"/>
     <use xlink:href="#DejaVuSans-2c" x="1341.345703"/>
     <use xlink:href="#DejaVuSans-20" x="1373.132812"/>
     <use xlink:href="#DejaVuSans-31" x="1404.919922"/>
     <use xlink:href="#DejaVuSans-30" x="1468.542969"/>
     <use xlink:href="#DejaVuSans-2c" x="1532.166016"/>
     <use xlink:href="#DejaVuSans-20" x="1563.953125"/>
     <use xlink:href="#DejaVuSans-6f" x="1595.740234"/>
     <use xlink:href="#DejaVuSans-72" x="1656.921875"/>
     <use xlink:href="#DejaVuSans-20" x="1698.035156"/>
     <use xlink:href="#DejaVuSans-32" x="1729.822266"/>
     <use xlink:href="#DejaVuSans-30" x="1793.445312"/>
     <use xlink:href="#DejaVuSans-20" x="1857.068359"/>
     <use xlink:href="#DejaVuSans-79" x="1888.855469"/>
     <use xlink:href="#DejaVuSans-65" x="1948.035156"/>
     <use xlink:href="#DejaVuSans-61" x="2009.558594"/>
     <use xlink:href="#DejaVuSans-72" x="2070.837891"/>
     <use xlink:href="#DejaVuSans-73" x="2111.951172"/>
     <use xlink:href="#DejaVuSans-29" x="2164.050781"/>
    </g>
    <!-- calc_min = function on (timeframe, RP) determining the limit -->
    <g style="fill: #ffffff" transform="translate(109.04 239.180887) scale(0.15 -0.15)">
     <defs>
      <path id="DejaVuSans-67" d="M 2906 1791 
Q 2906 2416 2648 2759 
Q 2391 3103 1925 3103 
Q 1463 3103 1205 2759 
Q 947 2416 947 1791 
Q 947 1169 1205 825 
Q 1463 481 1925 481 
Q 2391 481 2648 825 
Q 2906 1169 2906 1791 
z
M 3481 434 
Q 3481 -459 3084 -895 
Q 2688 -1331 1869 -1331 
Q 1566 -1331 1297 -1286 
Q 1028 -1241 775 -1147 
L 775 -588 
Q 1028 -725 1275 -790 
Q 1522 -856 1778 -856 
Q 2344 -856 2625 -561 
Q 2906 -266 2906 331 
L 2906 616 
Q 2728 306 2450 153 
Q 2172 0 1784 0 
Q 1141 0 747 490 
Q 353 981 353 1791 
Q 353 2603 747 3093 
Q 1141 3584 1784 3584 
Q 2172 3584 2450 3431 
Q 2728 3278 2906 2969 
L 2906 3500 
L 3481 3500 
L 3481 434 
z
" transform="scale(0.015625)"/>
     </defs>
     <use xlink:href="#DejaVuSans-63"/>
     <use xlink:href="#DejaVuSans-61" x="54.980469"/>
     <use xlink:href="#DejaVuSans-6c" x="116.259766"/>
     <use xlink:href="#DejaVuSans-63" x="144.042969"/>
     <use xlink:href="#DejaVuSans-5f" x="199.023438"/>
     <use xlink:href="#DejaVuSans-6d" x="249.023438"/>
     <use xlink:href="#DejaVuSans-69" x="346.435547"/>
     <use xlink:href="#DejaVuSans-6e" x="374.21875"/>
     <use xlink:href="#DejaVuSans-20" x="437.597656"/>
     <use xlink:href="#DejaVuSans-3d" x="469.384766"/>
     <use xlink:href="#DejaVuSans-20" x="553.173828"/>
     <use xlink:href="#DejaVuSans-66" x="584.960938"/>
     <use xlink:href="#DejaVuSans-75" x="620.166016"/>
     <use xlink:href="#DejaVuSans-6e" x="683.544922"/>
     <use xlink:href="#DejaVuSans-63" x="746.923828"/>
     <use xlink:href="#DejaVuSans-74" x="801.904297"/>
     <use xlink:href="#DejaVuSans-69" x="841.113281"/>
     <use xlink:href="#DejaVuSans-6f" x="868.896484"/>
     <use xlink:href="#DejaVuSans-6e" x="930.078125"/>
     <use xlink:href="#DejaVuSans-20" x="993.457031"/>
     <use xlink:href="#DejaVuSans-6f" x="1025.244141"/>
     <use xlink:href="#DejaVuSans-6e" x="1086.425781"/>
     <use xlink:href="#DejaVuSans-20" x="1149.804688"/>
     <use xlink:href="#DejaVuSans-28" x="1181.591797"/>
     <use xlink:href="#DejaVuSans-74" x="1220.605469"/>
     <use xlink:href="#DejaVuSans-69" x="1259.814453"/>
     <use xlink:href="#DejaVuSans-6d" x="1287.597656"/>
     <use xlink:href="#DejaVuSans-65" x="1385.009766"/>
     <use xlink:href="#DejaVuSans-66" x="1446.533203"/>
     <use xlink:href="#DejaVuSans-72" x="1481.738281"/>
     <use xlink:href="#DejaVuSans-61" x="1522.851562"/>
     <use xlink:href="#DejaVuSans-6d" x="1584.130859"/>
     <use xlink:href="#DejaVuSans-65" x="1681.542969"/>
     <use xlink:href="#DejaVuSans-2c" x="1743.066406"/>
     <use xlink:href="#DejaVuSans-20" x="1774.853516"/>
     <use xlink:href="#DejaVuSans-52" x="1806.640625"/>
     <use xlink:href="#DejaVuSans-50" x="1876.123047"/>
     <use xlink:href="#DejaVuSans-29" x="1936.425781"/>
     <use xlink:href="#DejaVuSans-20" x="1975.439453"/>
     <use xlink:href="#DejaVuSans-64" x="2007.226562"/>
     <use xlink:href="#DejaVuSans-65" x="2070.703125"/>
     <use xlink:href="#DejaVuSans-74" x="2132.226562"/>
     <use xlink:href="#DejaVuSans-65" x="2171.435547"/>
     <use xlink:href="#DejaVuSans-72" x="2232.958984"/>
     <use xlink:href="#DejaVuSans-6d" x="2272.322266"/>
     <use xlink:href="#DejaVuSans-69" x="2369.734375"/>
     <use xlink:href="#DejaVuSans-6e" x="2397.517578"/>
     <use xlink:href="#DejaVuSans-69" x="2460.896484"/>
     <use xlink:href="#DejaVuSans-6e" x="2488.679688"/>
     <use xlink:href="#DejaVuSans-67" x="2552.058594"/>
     <use xlink:href="#DejaVuSans-20" x="2615.535156"/>
     <use xlink:href="#DejaVuSans-74" x="2647.322266"/>
     <use xlink:href="#DejaVuSans-68" x="2686.53125"/>
     <use xlink:href="#DejaVuSans-65" x="2749.910156"/>
     <use xlink:href="#DejaVuSans-20" x="2811.433594"/>
     <use xlink:href="#DejaVuSans-6c" x="2843.220703"/>
     <use xlink:href="#DejaVuSans-69" x="2871.003906"/>
     <use xlink:href="#DejaVuSans-6d" x="2898.787109"/>
     <use xlink:href="#DejaVuSans-69" x="2996.199219"/>
     <use xlink:href="#DejaVuSans-74" x="3023.982422"/>
    </g>
    <!-- df = dataset -->
    <g style="fill: #ffffff" transform="translate(109.04 259.814091) scale(0.15 -0.15)">
     <use xlink:href="#DejaVuSans-64"/>
     <use xlink:href="#DejaVuSans-66" x="63.476562"/>
     <use xlink:href="#DejaVuSans-20" x="98.681641"/>
     <use xlink:href="#DejaVuSans-3d" x="130.46875"/>
     <use xlink:href="#DejaVuSans-20" x="214.257812"/>
     <use xlink:href="#DejaVuSans-64" x="246.044922"/>
     <use xlink:href="#DejaVuSans-61" x="309.521484"/>
     <use xlink:href="#DejaVuSans-74" x="370.800781"/>
     <use xlink:href="#DejaVuSans-61" x="410.009766"/>
     <use xlink:href="#DejaVuSans-73" x="471.289062"/>
     <use xlink:href="#DejaVuSans-65" x="523.388672"/>
     <use xlink:href="#DejaVuSans-74" x="584.912109"/>
    </g>
    <!-- x_i = impact_quantity of i-th row -->
    <g style="fill: #ffffff" transform="translate(109.04 280.030106) scale(0.15 -0.15)">
     <defs>
      <path id="DejaVuSans-78" d="M 3513 3500 
L 2247 1797 
L 3578 0 
L 2900 0 
L 1881 1375 
L 863 0 
L 184 0 
L 1544 1831 
L 300 3500 
L 978 3500 
L 1906 2253 
L 2834 3500 
L 3513 3500 
z
" transform="scale(0.015625)"/>
      <path id="DejaVuSans-70" d="M 1159 525 
L 1159 -1331 
L 581 -1331 
L 581 3500 
L 1159 3500 
L 1159 2969 
Q 1341 3281 1617 3432 
Q 1894 3584 2278 3584 
Q 2916 3584 3314 3078 
Q 3713 2572 3713 1747 
Q 3713 922 3314 415 
Q 2916 -91 2278 -91 
Q 1894 -91 1617 61 
Q 1341 213 1159 525 
z
M 3116 1747 
Q 3116 2381 2855 2742 
Q 2594 3103 2138 3103 
Q 1681 3103 1420 2742 
Q 1159 2381 1159 1747 
Q 1159 1113 1420 752 
Q 1681 391 2138 391 
Q 2594 391 2855 752 
Q 3116 1113 3116 1747 
z
" transform="scale(0.015625)"/>
      <path id="DejaVuSans-71" d="M 947 1747 
Q 947 1113 1208 752 
Q 1469 391 1925 391 
Q 2381 391 2643 752 
Q 2906 1113 2906 1747 
Q 2906 2381 2643 2742 
Q 2381 3103 1925 3103 
Q 1469 3103 1208 2742 
Q 947 2381 947 1747 
z
M 2906 525 
Q 2725 213 2448 61 
Q 2172 -91 1784 -91 
Q 1150 -91 751 415 
Q 353 922 353 1747 
Q 353 2572 751 3078 
Q 1150 3584 1784 3584 
Q 2172 3584 2448 3432 
Q 2725 3281 2906 2969 
L 2906 3500 
L 3481 3500 
L 3481 -1331 
L 2906 -1331 
L 2906 525 
z
" transform="scale(0.015625)"/>
      <path id="DejaVuSans-2d" d="M 313 2009 
L 1997 2009 
L 1997 1497 
L 313 1497 
L 313 2009 
z
" transform="scale(0.015625)"/>
      <path id="DejaVuSans-77" d="M 269 3500 
L 844 3500 
L 1563 769 
L 2278 3500 
L 2956 3500 
L 3675 769 
L 4391 3500 
L 4966 3500 
L 4050 0 
L 3372 0 
L 2619 2869 
L 1863 0 
L 1184 0 
L 269 3500 
z
" transform="scale(0.015625)"/>
     </defs>
     <use xlink:href="#DejaVuSans-78"/>
     <use xlink:href="#DejaVuSans-5f" x="59.179688"/>
     <use xlink:href="#DejaVuSans-69" x="109.179688"/>
     <use xlink:href="#DejaVuSans-20" x="136.962891"/>
     <use xlink:href="#DejaVuSans-3d" x="168.75"/>
     <use xlink:href="#DejaVuSans-20" x="252.539062"/>
     <use xlink:href="#DejaVuSans-69" x="284.326172"/>
     <use xlink:href="#DejaVuSans-6d" x="312.109375"/>
     <use xlink:href="#DejaVuSans-70" x="409.521484"/>
     <use xlink:href="#DejaVuSans-61" x="472.998047"/>
     <use xlink:href="#DejaVuSans-63" x="534.277344"/>
     <use xlink:href="#DejaVuSans-74" x="589.257812"/>
     <use xlink:href="#DejaVuSans-5f" x="628.466797"/>
     <use xlink:href="#DejaVuSans-71" x="678.466797"/>
     <use xlink:href="#DejaVuSans-75" x="741.943359"/>
     <use xlink:href="#DejaVuSans-61" x="805.322266"/>
     <use xlink:href="#DejaVuSans-6e" x="866.601562"/>
     <use xlink:href="#DejaVuSans-74" x="929.980469"/>
     <use xlink:href="#DejaVuSans-69" x="969.189453"/>
     <use xlink:href="#DejaVuSans-74" x="996.972656"/>
     <use xlink:href="#DejaVuSans-79" x="1036.181641"/>
     <use xlink:href="#DejaVuSans-20" x="1095.361328"/>
     <use xlink:href="#DejaVuSans-6f" x="1127.148438"/>
     <use xlink:href="#DejaVuSans-66" x="1188.330078"/>
     <use xlink:href="#DejaVuSans-20" x="1223.535156"/>
     <use xlink:href="#DejaVuSans-69" x="1255.322266"/>
     <use xlink:href="#DejaVuSans-2d" x="1283.105469"/>
     <use xlink:href="#DejaVuSans-74" x="1319.189453"/>
     <use xlink:href="#DejaVuSans-68" x="1358.398438"/>
     <use xlink:href="#DejaVuSans-20" x="1421.777344"/>
     <use xlink:href="#DejaVuSans-72" x="1453.564453"/>
     <use xlink:href="#DejaVuSans-6f" x="1492.427734"/>
     <use xlink:href="#DejaVuSans-77" x="1553.609375"/>
    </g>
    <!-- N = rows used -->
    <g style="fill: #ffffff" transform="translate(109.04 300.663309) scale(0.15 -0.15)">
     <defs>
      <path id="DejaVuSans-4e" d="M 628 4666 
L 1478 4666 
L 3547 763 
L 3547 4666 
L 4159 4666 
L 4159 0 
L 3309 0 
L 1241 3903 
L 1241 0 
L 628 0 
L 628 4666 
z
" transform="scale(0.015625)"/>
     </defs>
     <use xlink:href="#DejaVuSans-4e"/>
     <use xlink:href="#DejaVuSans-20" x="74.804688"/>
     <use xlink:href="#DejaVuSans-3d" x="106.591797"/>
     <use xlink:href="#DejaVuSans-20" x="190.380859"/>
     <use xlink:href="#DejaVuSans-72" x="222.167969"/>
     <use xlink:href="#DejaVuSans-6f" x="261.03125"/>
     <use xlink:href="#DejaVuSans-77" x="322.212891"/>
     <use xlink:href="#DejaVuSans-73" x="404"/>
     <use xlink:href="#DejaVuSans-20" x="456.099609"/>
     <use xlink:href="#DejaVuSans-75" x="487.886719"/>
     <use xlink:href="#DejaVuSans-73" x="551.265625"/>
     <use xlink:href="#DejaVuSans-65" x="603.365234"/>
     <use xlink:href="#DejaVuSans-64" x="664.888672"/>
    </g>
   </g>
  </g>
 </g>
</svg>
